<svg xmlns="http://www.w3.org/2000/svg" viewBox="0 0 128 128" width="128" height="128">
  <!-- Oil drop shape with modern design -->
  <defs>
    <linearGradient id="blueGradient" x1="0%" y1="0%" x2="0%" y2="100%">
      <stop offset="0%" style="stop-color:#3498db;stop-opacity:1" />
      <stop offset="100%" style="stop-color:#2980b9;stop-opacity:1" />
    </linearGradient>
    <linearGradient id="orangeAccent" x1="0%" y1="0%" x2="100%" y2="100%">
      <stop offset="0%" style="stop-color:#e67e22;stop-opacity:0.3" />
      <stop offset="100%" style="stop-color:#d35400;stop-opacity:0.2" />
    </linearGradient>
  </defs>
  
  <!-- Background circle for better visibility -->
  <circle cx="64" cy="64" r="56" fill="url(#blueGradient)" opacity="0.15"/>
  
  <!-- Oil drop main shape -->
  <path d="M 64 20 
           C 64 20, 48 40, 48 56
           C 48 70, 54 80, 64 80
           C 74 80, 80 70, 80 56
           C 80 40, 64 20, 64 20 Z" 
        fill="url(#blueGradient)" 
        stroke="#2c3e50" 
        stroke-width="2"/>
  
  <!-- Spreadsheet grid pattern inside -->
  <g opacity="0.4">
    <!-- Vertical lines -->
    <line x1="56" y1="45" x2="56" y2="72" stroke="white" stroke-width="1.5"/>
    <line x1="64" y1="40" x2="64" y2="75" stroke="white" stroke-width="1.5"/>
    <line x1="72" y1="45" x2="72" y2="72" stroke="white" stroke-width="1.5"/>
    
    <!-- Horizontal lines -->
    <line x1="52" y1="50" x2="76" y2="50" stroke="white" stroke-width="1.5"/>
    <line x1="50" y1="58" x2="78" y2="58" stroke="white" stroke-width="1.5"/>
    <line x1="52" y1="66" x2="76" y2="66" stroke="white" stroke-width="1.5"/>
  </g>
  
  <!-- Chart line accent (energy price trend) -->
  <polyline points="50,92 58,88 66,95 74,85 82,90" 
            fill="none" 
            stroke="#e67e22" 
            stroke-width="3" 
            stroke-linecap="round"
            stroke-linejoin="round"/>
  
  <!-- Data points on chart -->
  <circle cx="50" cy="92" r="2.5" fill="#e67e22"/>
  <circle cx="58" cy="88" r="2.5" fill="#e67e22"/>
  <circle cx="66" cy="95" r="2.5" fill="#e67e22"/>
  <circle cx="74" cy="85" r="2.5" fill="#e67e22"/>
  <circle cx="82" cy="90" r="2.5" fill="#e67e22"/>
</svg>
